<svg xmlns="http://www.w3.org/2000/svg" viewBox="0 0 1280 640" width="1280" height="640">
  <!-- Background -->
  <rect width="1280" height="640" fill="#f0ebe4"/>

  <!-- Logo square -->
  <rect x="490" y="100" width="300" height="300" rx="60" fill="#c84e1a"/>

  <!-- Brain icon centered in square, scaled from 24x24 to ~180x180 -->
  <g transform="translate(490, 100) translate(60, 63) scale(7.5)" stroke="white" stroke-width="1.2" fill="none" stroke-linecap="round" stroke-linejoin="round">
    <path d="M12 5a3 3 0 1 0-5.997.125 4 4 0 0 0-2.526 5.77 4 4 0 0 0 .556 6.588A4 4 0 1 0 12 18Z"/>
    <path d="M12 5a3 3 0 1 1 5.997.125 4 4 0 0 1 2.526 5.77 4 4 0 0 1-.556 6.588A4 4 0 1 1 12 18Z"/>
    <path d="M15 13a4.5 4.5 0 0 1-3-4 4.5 4.5 0 0 1-3 4"/>
    <path d="M17.599 6.5a3 3 0 0 0 .399-1.375"/>
    <path d="M6.003 5.125A3 3 0 0 0 6.401 6.5"/>
    <path d="M3.477 10.896a4 4 0 0 1 .585-.396"/>
    <path d="M19.938 10.5a4 4 0 0 1 .585.396"/>
    <path d="M6 18a4 4 0 0 1-1.967-.516"/>
    <path d="M19.967 17.484A4 4 0 0 1 18 18"/>
  </g>

  <!-- Text -->
  <text x="640" y="468" text-anchor="middle" font-family="-apple-system, BlinkMacSystemFont, 'Segoe UI', sans-serif" font-size="64" font-weight="700" fill="#1a1a1a" letter-spacing="-1">team-memory</text>
  <text x="640" y="530" text-anchor="middle" font-family="-apple-system, BlinkMacSystemFont, 'Segoe UI', sans-serif" font-size="28" fill="#6b6b6b">AI memory for teams · git version controlled · web UI &amp; CLI</text>
</svg>
